<svg width="27" height="26" viewBox="0 0 27 26" fill="none" xmlns="http://www.w3.org/2000/svg">
<g clip-path="url(#clip0_3190_5937)">
<path d="M20.4714 10.6979H22.2275C22.5419 11.5845 23.3886 12.2214 24.3816 12.2214C25.6416 12.2214 26.6667 11.1963 26.6667 9.93622C26.6667 8.67618 25.6416 7.65106 24.3816 7.65106C23.3886 7.65106 22.5419 8.28791 22.2275 9.1745H20.4714V4.57031H22.2275C22.5419 5.4569 23.3886 6.09375 24.3816 6.09375C25.6416 6.09375 26.6667 5.06863 26.6667 3.80859C26.6667 2.54856 25.6416 1.52344 24.3816 1.52344C23.3886 1.52344 22.5419 2.16029 22.2275 3.04688H18.948V22.9531H22.2275C22.5419 23.8397 23.3886 24.4766 24.3816 24.4766C25.6416 24.4766 26.6667 23.4514 26.6667 22.1914C26.6667 20.9314 25.6416 19.9062 24.3816 19.9062C23.3886 19.9062 22.5419 20.5431 22.2275 21.4297H20.4714V16.8255H22.2275C22.5419 17.7121 23.3886 18.3489 24.3816 18.3489C25.6416 18.3489 26.6667 17.3238 26.6667 16.0638C26.6667 14.8038 25.6416 13.7786 24.3816 13.7786C23.3886 13.7786 22.5419 14.4155 22.2275 15.3021H20.4714V10.6979ZM24.3816 9.1745C24.8016 9.1745 25.1433 9.5162 25.1433 9.93622C25.1433 10.3562 24.8016 10.6979 24.3816 10.6979C23.9616 10.6979 23.6199 10.3562 23.6199 9.93622C23.6199 9.5162 23.9616 9.1745 24.3816 9.1745ZM24.3816 3.04688C24.8016 3.04688 25.1433 3.38858 25.1433 3.80859C25.1433 4.22861 24.8016 4.57031 24.3816 4.57031C23.9616 4.57031 23.6199 4.22861 23.6199 3.80859C23.6199 3.38858 23.9616 3.04688 24.3816 3.04688ZM24.3816 21.4297C24.8016 21.4297 25.1433 21.7714 25.1433 22.1914C25.1433 22.6114 24.8016 22.9531 24.3816 22.9531C23.9616 22.9531 23.6199 22.6114 23.6199 22.1914C23.6199 21.7714 23.9616 21.4297 24.3816 21.4297ZM24.3816 15.3021C24.8016 15.3021 25.1433 15.6438 25.1433 16.0638C25.1433 16.4838 24.8016 16.8255 24.3816 16.8255C23.9616 16.8255 23.6199 16.4838 23.6199 16.0638C23.6199 15.6438 23.9616 15.3021 24.3816 15.3021Z" fill="#59A745"/>
<path d="M16.3078 11.0191C16.309 11.0179 9.45358 4.16239 9.45358 4.16239C8.76265 3.474 7.8105 3.04688 6.7605 3.04688H2.19019V13.8125H0.666748V19.9062H2.19019V22.9531H17.4246V13.7109C17.4246 12.6609 16.9974 11.7087 16.3078 11.0191ZM10.5691 7.43234L13.0391 9.90234H10.5691V7.43234ZM2.19019 15.3359H12.8542V18.3828H2.19019V15.3359ZM15.9011 21.4297H3.71362V19.9062H14.3777V13.8125H3.71362V4.57031H6.7605C8.02053 4.57031 9.04565 5.59543 9.04565 6.85547V11.4258H13.616C14.876 11.4258 15.9011 12.4509 15.9011 13.7109V21.4297Z" fill="#3D3A3A"/>
</g>
<defs>
<clipPath id="clip0_3190_5937">
<rect width="26" height="26" fill="white" transform="translate(0.666748)"/>
</clipPath>
</defs>
</svg>
