<svg width="56" height="56" viewBox="0 0 56 56" fill="none" xmlns="http://www.w3.org/2000/svg">
<g opacity="0.5" clip-path="url(#clip0_3222_10039)">
<path d="M41.1765 13.176H44.4706V26.3524H47.7647V13.176H51.0588V9.88184H41.1765V13.176Z" fill="currentColor"/>
<path d="M33.7647 23.0583H29.647V26.3524H33.7647C36.0352 26.3524 37.8823 24.5053 37.8823 22.2348V20.5877C37.8823 18.3172 36.0352 16.4701 33.7647 16.4701C33.3105 16.4701 32.9412 16.1007 32.9412 15.6465V13.9995C32.9412 13.5453 33.3105 13.176 33.7647 13.176H37.8823V9.88184H33.7647C31.4942 9.88184 29.647 11.729 29.647 13.9995V15.6465C29.647 17.9171 31.4942 19.7642 33.7647 19.7642C34.2188 19.7642 34.5882 20.1336 34.5882 20.5877V22.2348C34.5882 22.6889 34.2188 23.0583 33.7647 23.0583Z" fill="currentColor"/>
<path d="M26.353 13.176V9.88184H18.1177V26.3524H26.353V23.0583H21.4118V19.7642H24.7059V16.4701H21.4118V13.176H26.353Z" fill="currentColor"/>
<path d="M9.88234 9.88184H4.94116V26.3524H9.88234C12.6069 26.3524 14.8235 24.1359 14.8235 21.4112C14.8235 20.1466 14.3454 18.992 13.5613 18.1171C14.3455 17.2422 14.8235 16.0876 14.8235 14.823C14.8235 12.0984 12.6069 9.88184 9.88234 9.88184ZM8.23528 13.176H9.88234C10.7905 13.176 11.5294 13.9148 11.5294 14.823C11.5294 15.7312 10.7905 16.4701 9.88234 16.4701H8.23528V13.176ZM9.88234 23.0583H8.23528V19.7642H9.88234C10.7905 19.7642 11.5294 20.5031 11.5294 21.4112C11.5294 22.3194 10.7905 23.0583 9.88234 23.0583Z" fill="currentColor"/>
<path d="M55.1216 32.9406V29.6465H46.8863V46.1171H55.1216V42.823H50.1804V39.5288H53.4745V36.2347H50.1804V32.9406H55.1216Z" fill="currentColor"/>
<path d="M33.7098 34.5877V41.1759C33.7098 43.9006 35.9537 46.1171 38.6784 46.1171C41.4031 46.1171 43.647 43.9006 43.647 41.1759H40.3529C40.3529 42.0842 39.5867 42.823 38.6784 42.823C37.7701 42.823 37.0039 42.0842 37.0039 41.1759V34.5877C37.0039 33.6794 37.7701 32.9406 38.6784 32.9406C39.5867 32.9406 40.3529 33.6794 40.3529 34.5877H43.647C43.647 31.863 41.4031 29.6465 38.6784 29.6465C35.9537 29.6465 33.7098 31.863 33.7098 34.5877Z" fill="currentColor"/>
<path d="M27.1216 29.6465H30.4157V46.1171H27.1216V29.6465Z" fill="currentColor"/>
<path d="M13.9451 46.1171H17.2392V39.5288H18.9411C19.8493 39.5288 20.5333 40.2676 20.5333 41.1759V46.1171H23.8274V41.1759C23.8274 39.9113 23.3768 38.7567 22.5927 37.8818C23.3769 37.0069 23.8686 35.8523 23.8686 34.5877C23.8686 31.863 21.6658 29.6465 18.9411 29.6465H13.9451V46.1171ZM17.2392 32.9406H18.9411C19.8493 32.9406 20.5882 33.6794 20.5882 34.5877C20.5882 35.496 19.8493 36.2347 18.9411 36.2347H17.2392V32.9406Z" fill="currentColor"/>
<path d="M0.768616 46.1171H4.06273V39.5288H5.76469C8.48926 39.5288 10.7059 37.3123 10.7059 34.5877C10.7059 31.863 8.48926 29.6465 5.76469 29.6465H0.768616V46.1171ZM4.06273 32.9406H5.76469C6.67288 32.9406 7.41175 33.6794 7.41175 34.5877C7.41175 35.496 6.67288 36.2347 5.76469 36.2347H4.06273V32.9406Z" fill="currentColor"/>
<path d="M0 3.29395H56V6.58806H0V3.29395Z" fill="currentColor"/>
<path d="M0 49.4111H56V52.7052H0V49.4111Z" fill="currentColor"/>
<path d="M41.1765 13.176H44.4706V26.3524H47.7647V13.176H51.0588V9.88184H41.1765V13.176Z" fill="currentColor"/>
<path d="M33.7647 23.0583H29.647V26.3524H33.7647C36.0352 26.3524 37.8823 24.5053 37.8823 22.2348V20.5877C37.8823 18.3172 36.0352 16.4701 33.7647 16.4701C33.3105 16.4701 32.9412 16.1007 32.9412 15.6465V13.9995C32.9412 13.5453 33.3105 13.176 33.7647 13.176H37.8823V9.88184H33.7647C31.4942 9.88184 29.647 11.729 29.647 13.9995V15.6465C29.647 17.9171 31.4942 19.7642 33.7647 19.7642C34.2188 19.7642 34.5882 20.1336 34.5882 20.5877V22.2348C34.5882 22.6889 34.2188 23.0583 33.7647 23.0583Z" fill="currentColor"/>
<path d="M26.353 13.176V9.88184H18.1177V26.3524H26.353V23.0583H21.4118V19.7642H24.7059V16.4701H21.4118V13.176H26.353Z" fill="currentColor"/>
<path d="M9.88234 9.88184H4.94116V26.3524H9.88234C12.6069 26.3524 14.8235 24.1359 14.8235 21.4112C14.8235 20.1466 14.3454 18.992 13.5613 18.1171C14.3455 17.2422 14.8235 16.0876 14.8235 14.823C14.8235 12.0984 12.6069 9.88184 9.88234 9.88184ZM8.23528 13.176H9.88234C10.7905 13.176 11.5294 13.9148 11.5294 14.823C11.5294 15.7312 10.7905 16.4701 9.88234 16.4701H8.23528V13.176ZM9.88234 23.0583H8.23528V19.7642H9.88234C10.7905 19.7642 11.5294 20.5031 11.5294 21.4112C11.5294 22.3194 10.7905 23.0583 9.88234 23.0583Z" fill="currentColor"/>
<path d="M55.1216 32.9406V29.6465H46.8863V46.1171H55.1216V42.823H50.1804V39.5288H53.4745V36.2347H50.1804V32.9406H55.1216Z" fill="currentColor"/>
<path d="M33.7098 34.5877V41.1759C33.7098 43.9006 35.9537 46.1171 38.6784 46.1171C41.4031 46.1171 43.647 43.9006 43.647 41.1759H40.3529C40.3529 42.0842 39.5867 42.823 38.6784 42.823C37.7701 42.823 37.0039 42.0842 37.0039 41.1759V34.5877C37.0039 33.6794 37.7701 32.9406 38.6784 32.9406C39.5867 32.9406 40.3529 33.6794 40.3529 34.5877H43.647C43.647 31.863 41.4031 29.6465 38.6784 29.6465C35.9537 29.6465 33.7098 31.863 33.7098 34.5877Z" fill="currentColor"/>
<path d="M27.1216 29.6465H30.4157V46.1171H27.1216V29.6465Z" fill="currentColor"/>
<path d="M13.9451 46.1171H17.2392V39.5288H18.9411C19.8493 39.5288 20.5333 40.2676 20.5333 41.1759V46.1171H23.8274V41.1759C23.8274 39.9113 23.3768 38.7567 22.5927 37.8818C23.3769 37.0069 23.8686 35.8523 23.8686 34.5877C23.8686 31.863 21.6658 29.6465 18.9411 29.6465H13.9451V46.1171ZM17.2392 32.9406H18.9411C19.8493 32.9406 20.5882 33.6794 20.5882 34.5877C20.5882 35.496 19.8493 36.2347 18.9411 36.2347H17.2392V32.9406Z" fill="currentColor"/>
<path d="M0.768616 46.1171H4.06273V39.5288H5.76469C8.48926 39.5288 10.7059 37.3123 10.7059 34.5877C10.7059 31.863 8.48926 29.6465 5.76469 29.6465H0.768616V46.1171ZM4.06273 32.9406H5.76469C6.67288 32.9406 7.41175 33.6794 7.41175 34.5877C7.41175 35.496 6.67288 36.2347 5.76469 36.2347H4.06273V32.9406Z" fill="currentColor"/>
<path d="M0 3.29395H56V6.58806H0V3.29395Z" fill="currentColor"/>
<path d="M0 49.4111H56V52.7052H0V49.4111Z" fill="currentColor"/>
</g>
<defs>
<clipPath id="clip0_3222_10039">
<rect width="56" height="56" fill="currentColor"/>
</clipPath>
</defs>
</svg>
