<svg width="56" height="56" viewBox="0 0 56 56" fill="none" xmlns="http://www.w3.org/2000/svg">
<g opacity="0.5" clip-path="url(#clip0_3222_10019)">
<path d="M42.9231 11.0243L42.8671 10.915C40.7772 7.18566 37.6563 4.19763 33.8419 2.27394C29.8691 0.270288 25.3977 -0.428292 20.9119 0.253992C11.8686 1.6295 4.57833 8.90274 3.18314 17.9415C2.21134 24.2371 4.02227 30.5702 8.15152 35.3172C9.26212 36.5941 9.70454 38.2022 9.36405 39.7344L5.80476 56H28.8531L31.0407 45.9375H45.5778V32.8124H53.074L42.9231 11.0243ZM42.2964 29.5312V36.0937H39.0152V39.375H42.2964V42.6562H28.3961L26.2084 52.7188H9.88162L12.5682 40.441C13.1358 37.887 12.4283 35.2345 10.6271 33.1637C7.13312 29.1469 5.60187 23.7811 6.4259 18.442C7.60464 10.8053 13.7644 4.66018 21.4053 3.49807C28.967 2.34798 36.249 5.86725 39.9752 12.4669L47.9253 29.5312H42.2964Z" fill="currentColor"/>
<path d="M32.4526 13.125H29.1713V9.84375H25.8901V13.125H22.6088V9.84375H19.3276V13.125H16.0463V16.4062H12.7651V19.6875H16.0463V22.9688H12.7651V26.25H16.0463V29.5312H19.3276V32.8125H22.6088V29.5312H25.8901V32.8125H29.1713V29.5312H32.4526V26.25H35.7338V22.9688H32.4526V19.6875H35.7338V16.4062H32.4526V13.125ZM29.1713 26.25H19.3276V16.4062H29.1713V26.25Z" fill="currentColor"/>
<path d="M22.6089 19.6875H25.8901V22.9688H22.6089V19.6875Z" fill="currentColor"/>
</g>
<defs>
<clipPath id="clip0_3222_10019">
<rect width="56" height="56" fill="currentColor"/>
</clipPath>
</defs>
</svg>
