<svg width="52" height="52" viewBox="0 0 52 52" fill="none" xmlns="http://www.w3.org/2000/svg">
<g clip-path="url(#clip0_3215_6358)">
<path d="M13.6499 19.5V34.801H21.4499V32.201H16.7087V28.6L21.4499 28.6V26L16.7087 26V22.1L21.4499 22.1V19.5H13.6499Z" fill="#1D1D1F"/>
<path d="M23.3234 34.7941H32.4998V19.5H23.3234V34.7941ZM26.3822 22.5588H29.441V31.7353H26.3822V22.5588Z" fill="#1D1D1F"/>
<path d="M34.3734 34.7941H38.3499C40.9499 34.7941 43.5499 32.5 43.5499 29.25L43.5499 24.7C43.5499 22.1 40.9499 19.5 38.3499 19.5H34.3734V34.7941ZM37.4322 22.5588H37.6999C39.6499 22.5588 40.8439 24.05 40.8439 25.879V28.4257C40.8439 30.55 39.6499 31.7353 37.6999 31.7353H37.4322L37.4322 22.5588Z" fill="#1D1D1F"/>
<path d="M10.1687 26C10.1687 16.7246 17.7148 9.17851 26.9901 9.17851C30.2515 9.17851 33.4557 10.1418 36.1759 11.9175L32.8795 15.214L49.9209 19.074L46.0608 2.03247L42.7645 5.32898C38.2579 1.88317 32.7099 0 26.9901 0C20.0453 0 13.5161 2.70451 8.60537 7.61516C3.69462 12.526 0.990112 19.0552 0.990112 26C0.990112 32.9448 3.69462 39.474 8.60537 44.3848C13.5161 49.2955 20.0453 52 26.9901 52H28.5135V42.8215H26.9901C17.7148 42.8215 10.1687 35.2754 10.1687 26ZM25.4667 48.9038C19.9089 48.542 14.7342 46.2047 10.7598 42.2304C6.42462 37.895 4.03699 32.1309 4.03699 26C4.03699 19.8691 6.42462 14.105 10.7598 9.7696C15.0951 5.43441 20.8592 3.04688 26.9901 3.04688C32.4582 3.04688 37.747 4.99525 41.8823 8.53298L42.9533 9.44917L44.3096 8.09291L45.8821 15.0351L38.9399 13.4626L40.7859 11.6166L39.4703 10.552C35.9483 7.70159 31.5162 6.13173 26.9902 6.13173C16.0348 6.13163 7.12185 15.0446 7.12185 26C7.12185 36.4433 15.2198 45.0304 25.4667 45.8106V48.9038Z" fill="#59A745"/>
<path d="M47.9503 24.4087L50.9905 24.2066C50.9259 23.235 50.8016 22.2595 50.621 21.3071L47.6274 21.8747C47.7852 22.7067 47.8937 23.5593 47.9503 24.4087Z" fill="#1D1D1F"/>
<path d="M47.9674 26.9653C47.9224 27.8147 47.8253 28.6686 47.6788 29.5032L50.6799 30.0297C50.8474 29.0748 50.9584 28.098 51.0099 27.1266L47.9674 26.9653Z" fill="#1D1D1F"/>
<path d="M30.7765 46.5676L31.3319 49.5635C32.2878 49.3863 33.2424 49.1483 34.1692 48.8561L33.2531 45.9502C32.4442 46.2051 31.6109 46.4129 30.7765 46.5676Z" fill="#1D1D1F"/>
<path d="M35.6364 45.0359L36.8988 47.809C37.7815 47.4071 38.6498 46.9462 39.4795 46.4389L37.8903 43.8394C37.1655 44.2825 36.4072 44.6851 35.6364 45.0359Z" fill="#1D1D1F"/>
<path d="M43.5743 38.7547L45.9805 40.6237C46.5766 39.8562 47.132 39.0444 47.6308 38.2109L45.0166 36.646C44.5805 37.3745 44.0954 38.0839 43.5743 38.7547Z" fill="#1D1D1F"/>
<path d="M39.9843 42.3781L41.8753 44.7672C42.6364 44.1647 43.369 43.5093 44.0527 42.8193L41.8884 40.6748C41.2906 41.2783 40.65 41.8513 39.9843 42.3781Z" fill="#1D1D1F"/>
<path d="M46.1931 34.379L48.9779 35.6152C49.3727 34.726 49.7164 33.8036 49.9997 32.8737L47.0852 31.9858C46.8379 32.7975 46.5378 33.6026 46.1931 34.379Z" fill="#1D1D1F"/>
</g>
<defs>
<clipPath id="clip0_3215_6358">
<rect width="52" height="52" fill="white"/>
</clipPath>
</defs>
</svg>
