<svg width="53" height="52" viewBox="0 0 53 52" fill="none" xmlns="http://www.w3.org/2000/svg">
<path d="M43.3951 25.7689C44.1354 26.1895 44.9902 26.4311 45.9009 26.4311C48.7079 26.4311 50.9915 24.1475 50.9915 21.3406C50.9915 18.5336 48.7079 16.25 45.9009 16.25C43.094 16.25 40.8104 18.5336 40.8104 21.3406C40.8104 22.1224 40.988 22.8634 41.3043 23.526L35.8093 27.6876C34.9971 27.1389 34.0188 26.8183 32.967 26.8183C31.9405 26.8183 30.9847 27.1247 30.1843 27.6494L24.7968 23.2413C25.0075 22.6834 25.1236 22.0796 25.1236 21.4489C25.1236 18.642 22.8399 16.3584 20.033 16.3584C17.2262 16.3584 14.9425 18.642 14.9425 21.4489C14.9425 22.1603 15.0898 22.838 15.3546 23.4535L8.31669 30.8573C7.92629 30.7611 7.51872 30.709 7.09906 30.709C4.29218 30.709 2.00854 32.9927 2.00854 35.7996C2.00854 38.6064 4.29218 40.8901 7.09906 40.8901C9.90594 40.8901 12.1896 38.6064 12.1896 35.7996C12.1896 34.5397 11.7285 33.3861 10.9675 32.4962L17.3557 25.776C18.134 26.2594 19.0512 26.5395 20.033 26.5395C21.102 26.5395 22.0945 26.2076 22.9144 25.6425L28.2469 30.0056C28.0088 30.594 27.8764 31.2361 27.8764 31.9088C27.8764 34.7157 30.16 36.9993 32.9669 36.9993C35.7738 36.9993 38.0574 34.7157 38.0574 31.9088C38.0574 31.2612 37.9347 30.6422 37.7131 30.072L43.3951 25.7689ZM45.9009 19.3003C47.0259 19.3003 47.9412 20.2155 47.9412 21.3406C47.9412 22.4655 47.026 23.3807 45.9009 23.3807C44.776 23.3807 43.8607 22.4655 43.8607 21.3406C43.8608 20.2156 44.776 19.3003 45.9009 19.3003ZM7.09906 37.8398C5.97415 37.8398 5.05887 36.9246 5.05887 35.7996C5.05887 34.6746 5.97405 33.7594 7.09906 33.7594C8.22397 33.7594 9.13925 34.6746 9.13925 35.7996C9.13925 36.9246 8.22397 37.8398 7.09906 37.8398ZM20.033 23.4891C18.9081 23.4891 17.9929 22.5739 17.9929 21.4489C17.9929 20.3239 18.908 19.4088 20.033 19.4088C21.1581 19.4088 22.0732 20.324 22.0732 21.4489C22.0732 22.5738 21.1579 23.4891 20.033 23.4891ZM32.967 33.9488C31.8421 33.9488 30.9268 33.0336 30.9268 31.9087C30.9268 30.7838 31.842 29.8685 32.967 29.8685C34.092 29.8685 35.0072 30.7837 35.0072 31.9087C35.0072 33.0337 34.0919 33.9488 32.967 33.9488Z" fill="#59A745"/>
<path d="M45.8124 28.333C43.0689 28.333 40.8368 30.5651 40.8368 33.3087V52.0004H50.7882V33.3087C50.7882 30.5651 48.5561 28.333 45.8124 28.333ZM47.7378 48.95H43.8871V33.3087C43.8871 32.2471 44.7508 31.3834 45.8123 31.3834C46.874 31.3834 47.7377 32.2471 47.7377 33.3087L47.7378 48.95Z" fill="#1D1D1F"/>
<path d="M32.967 38.6289C30.2235 38.6289 27.9913 40.8609 27.9913 43.6047V52.0003H37.9427V43.6046C37.9427 40.8609 35.7106 38.6289 32.967 38.6289ZM34.8923 48.9499H31.0417V43.6046C31.0417 42.5429 31.9054 41.6792 32.9669 41.6792C34.0285 41.6792 34.8922 42.5429 34.8922 43.6046L34.8923 48.9499Z" fill="#1D1D1F"/>
<path d="M19.9535 32.4004C17.2099 32.4004 14.9778 34.6324 14.9778 37.3761V52.0004H24.9293V37.3761C24.9293 34.6325 22.6972 32.4004 19.9535 32.4004ZM21.879 48.95H18.0282V37.3761C18.0282 36.3145 18.8919 35.4508 19.9535 35.4508C21.0152 35.4508 21.8789 36.3145 21.8789 37.3761L21.879 48.95Z" fill="#1D1D1F"/>
<path d="M7.10807 42.1143C4.36447 42.1143 2.13232 44.3463 2.13232 47.0899V52.0003H12.0837V47.0899C12.0837 44.3463 9.85158 42.1143 7.10807 42.1143ZM9.03329 48.9499H5.18275V47.0899C5.18275 46.0283 6.04644 45.1646 7.10807 45.1646C8.16961 45.1646 9.03329 46.0283 9.03329 47.0899V48.9499Z" fill="#1D1D1F"/>
<path d="M32.8429 17.3333C37.6296 17.3333 41.51 13.453 41.51 8.66704C41.51 3.88032 37.6296 0 32.8429 0C28.057 0 24.1766 3.88032 24.1766 8.66704C24.1766 13.453 28.057 17.3333 32.8429 17.3333ZM32.8429 2.23435C36.3903 2.23435 39.2756 5.11964 39.2756 8.66704C39.2756 12.2137 36.3903 15.099 32.8429 15.099C29.2963 15.099 26.411 12.2137 26.411 8.66704C26.411 5.11964 29.2963 2.23435 32.8429 2.23435Z" fill="black"/>
<path d="M31.1088 9.78393H34.5782C34.9173 9.78393 35.2038 10.0704 35.2038 10.4095C35.2038 10.7486 34.9172 11.0351 34.5781 11.0351L29.3659 11.0353L29.366 13.2697L31.7315 13.2696V14.4409H33.9659V13.2695H34.5781C36.1551 13.2695 37.438 11.9865 37.438 10.4096C37.438 8.83269 36.1551 7.54965 34.5781 7.54965H31.1088C30.7697 7.54965 30.4833 7.26314 30.4833 6.92411C30.4833 6.58509 30.7698 6.29857 31.1088 6.29857H36.321V4.06422H33.9659V2.88672H31.7315V4.06422H31.1088C29.5319 4.06422 28.2489 5.34718 28.2489 6.92411C28.2489 8.50104 29.5318 9.78393 31.1088 9.78393Z" fill="black"/>
</svg>
