<svg width="65" height="64" viewBox="0 0 65 64" fill="none" xmlns="http://www.w3.org/2000/svg">
<g clip-path="url(#clip0_176_3515)">
<path d="M18.5334 46.8071V50.4111H13.1001V46.8071L18.5334 46.8071Z" fill="#59A745"/>
<path d="M46.9111 17.2237V13.5899H51.6001V17.2237H46.9111Z" fill="#59A745"/>
<path fill-rule="evenodd" clip-rule="evenodd" d="M35.6277 30.1255L33.6182 25.4674L35.7242 20.8093C37.7375 16.3561 42.0241 13.5899 46.9111 13.5899V17.2237L45.0362 17.5418C42.4462 18.1098 40.2749 19.8468 39.1412 22.3543L35.6277 30.1255ZM29.7202 43.1918L31.8262 38.5336L29.8167 33.8755L26.3032 41.6468C25.1696 44.1541 22.9982 45.8913 20.4082 46.4593L18.5334 46.8071V50.4111C23.4204 50.4111 27.707 47.6449 29.7202 43.1918Z" fill="#59A745"/>
<path fill-rule="evenodd" clip-rule="evenodd" d="M33.9322 30.1255L29.7202 20.8092C27.707 16.3561 23.4204 13.5898 18.5334 13.5898V17.1939L20.4082 17.5417C22.9982 18.1097 25.1696 19.8468 26.3032 22.3542L29.8167 30.1255L31.5122 33.8755L35.7242 43.1917C37.7375 47.6448 42.0241 50.4111 46.9111 50.4111V46.7772L45.0362 46.4592C42.4462 45.8912 40.2749 44.1542 39.1412 41.6467L35.6277 33.8755L33.9322 30.1255Z" fill="#59A745"/>
<path d="M18.5334 17.1939V13.5898H13.6001V17.1939H18.5334Z" fill="#59A745"/>
<path d="M46.9111 46.7772V50.4111H51.1001V46.7772H46.9111Z" fill="#59A745"/>
<path fill-rule="evenodd" clip-rule="evenodd" d="M12.1001 11.5H4.1001V19.5H12.1001V11.5ZM0.600098 8V23H15.6001V8H0.600098Z" fill="#59A745"/>
<path fill-rule="evenodd" clip-rule="evenodd" d="M12.1001 44.5H4.1001V52.5H12.1001V44.5ZM0.600098 41V56H15.6001V41H0.600098Z" fill="#59A745"/>
<path fill-rule="evenodd" clip-rule="evenodd" d="M61.1001 11.5H53.1001V19.5H61.1001V11.5ZM49.6001 8V23H64.6001V8H49.6001Z" fill="#59A745"/>
<path fill-rule="evenodd" clip-rule="evenodd" d="M61.1001 44.5H53.1001V52.5H61.1001V44.5ZM49.6001 41V56H64.6001V41H49.6001Z" fill="#59A745"/>
</g>
<defs>
<clipPath id="clip0_176_3515">
<rect width="64" height="64" fill="white" transform="translate(0.600098)"/>
</clipPath>
</defs>
</svg>
