<svg width="64" height="64" viewBox="0 0 64 64" fill="none" xmlns="http://www.w3.org/2000/svg">
<path d="M57.7282 32.1324L58.0217 31.8137L58.0241 31.8163L60.7032 28.9071L63 31.4011L56.0024 39L56 38.9974L55.9976 39L49 31.4011L51.2968 28.9071L53.9759 31.8163L53.9783 31.8137L54.361 32.2292V25H57.7282V32.1324Z" fill="#59A745"/>
<path fill-rule="evenodd" clip-rule="evenodd" d="M0 56V60H52V56H0Z" fill="#59A745"/>
<path fill-rule="evenodd" clip-rule="evenodd" d="M0 40V44H52V40H0Z" fill="#59A745"/>
<path fill-rule="evenodd" clip-rule="evenodd" d="M51 5.75C48.6856 5.75 46.8094 7.6262 46.8094 9.9406V21.6388C46.8094 24.6558 44.3636 27.1017 41.3465 27.1017C38.3295 27.1017 35.8837 24.6558 35.8837 21.6388V20.2838C35.8837 19.4731 35.2265 18.8159 34.4158 18.8159C33.6052 18.8159 32.948 19.4731 32.948 20.2838V29.2871C32.948 32.3042 30.5022 34.75 27.4851 34.75C24.4681 34.75 22.0223 32.3042 22.0223 29.2871V17.9818C22.0223 17.0345 21.2543 16.2665 20.3069 16.2665C19.3596 16.2665 18.5916 17.0345 18.5916 17.9818V19.5844C18.5916 22.328 16.3674 24.5522 13.6238 24.5522C10.8801 24.5522 8.65594 22.328 8.65594 19.5844V8.36957C8.65594 7.56164 8.00099 6.90669 7.19307 6.90669C6.38515 6.90669 5.7302 7.56164 5.7302 8.36957V18.1846C5.7302 21.3493 3.1647 23.9148 0 23.9148V20.4148C1.2317 20.4148 2.2302 19.4163 2.2302 18.1846V8.36957C2.2302 5.62865 4.45215 3.4067 7.19307 3.4067C9.93399 3.4067 12.1559 5.62865 12.1559 8.36957V19.5844C12.1559 20.395 12.8131 21.0522 13.6238 21.0522C14.4344 21.0522 15.0916 20.395 15.0916 19.5844V17.9818C15.0916 15.1015 17.4266 12.7665 20.3069 12.7665C23.1873 12.7665 25.5223 15.1015 25.5223 17.9818V29.2871C25.5223 30.3712 26.4011 31.25 27.4851 31.25C28.5692 31.25 29.448 30.3712 29.448 29.2871V20.2838C29.448 17.5401 31.6722 15.3159 34.4158 15.3159C37.1595 15.3159 39.3837 17.5401 39.3837 20.2838V21.6388C39.3837 22.7228 40.2625 23.6017 41.3465 23.6017C42.4306 23.6017 43.3094 22.7228 43.3094 21.6388V9.9406C43.3094 5.69321 46.7526 2.25 51 2.25V5.75ZM2.2302 40.25H12.1559V50.266C12.1559 51.0766 12.8131 51.7338 13.6238 51.7338C14.4344 51.7338 15.0916 51.0766 15.0916 50.266V49.1976C15.0916 46.3172 17.4266 43.9822 20.3069 43.9822C23.1873 43.9822 25.5223 46.3172 25.5223 49.1976V56.25H29.448V51.3351C29.448 48.5915 31.6722 46.3673 34.4158 46.3673C37.1595 46.3673 39.3837 48.5915 39.3837 51.3351V52.156C39.3837 53.2401 40.2625 54.1189 41.3465 54.1189C42.4306 54.1189 43.3094 53.2401 43.3094 52.156V40.25H51V43.75H46.8094V52.156C46.8094 55.1731 44.3636 57.6189 41.3465 57.6189C38.3295 57.6189 35.8837 55.1731 35.8837 52.156V51.3351C35.8837 50.5245 35.2265 49.8673 34.4158 49.8673C33.6052 49.8673 32.948 50.5245 32.948 51.3351V59.75H22.0223V49.1976C22.0223 48.2502 21.2543 47.4822 20.3069 47.4822C19.3596 47.4822 18.5916 48.2502 18.5916 49.1976V50.266C18.5916 53.0096 16.3674 55.2338 13.6238 55.2338C10.8801 55.2338 8.65594 53.0096 8.65594 50.266V43.75H5.7302V48.9073C5.7302 52.072 3.1647 54.6375 0 54.6375V51.1375C1.2317 51.1375 2.2302 50.139 2.2302 48.9073V40.25Z" fill="#59A745"/>
<path fill-rule="evenodd" clip-rule="evenodd" d="M0 25V29H52V25H0Z" fill="#59A745"/>
<path fill-rule="evenodd" clip-rule="evenodd" d="M0 9V13H52V9H0Z" fill="#59A745"/>
</svg>
