<svg width="65" height="64" viewBox="0 0 65 64" fill="none" xmlns="http://www.w3.org/2000/svg">
<g clip-path="url(#clip0_176_3502)">
<path d="M34.6826 30.112H63.55C64.2403 30.112 64.8 29.5522 64.8 28.862V10.0355C64.8 9.3452 64.2403 8.78545 63.55 8.78545H50.2616L46.8625 5.3862C46.6281 5.15183 46.3101 5.02008 45.9786 5.02008H34.6828C33.9925 5.02008 33.4328 5.5797 33.4328 6.27008V16.316H28.4073C27.717 16.316 27.1573 16.8756 27.1573 17.566V30.7497H23.3818C23.3818 26.4827 23.3818 14.797 23.3818 9.40795C23.3818 6.11533 17.7018 4.39258 12.0909 4.39258C6.48 4.39258 0.800003 6.11533 0.800003 9.40795V54.5916C0.800003 57.8842 6.47988 59.607 12.0908 59.607C17.7016 59.607 23.3816 57.8842 23.3816 54.5916C23.3816 52.2443 23.3816 35.3402 23.3816 33.2498H27.1571V46.4336C27.1571 47.1238 27.7169 47.6836 28.4071 47.6836H33.4326V57.7295C33.4326 58.4197 33.9924 58.9795 34.6826 58.9795H63.55C64.2403 58.9795 64.8 58.4197 64.8 57.7295V38.9028C64.8 38.2125 64.2403 37.6528 63.55 37.6528H50.2616L46.8625 34.2535C46.6281 34.0191 46.3101 33.8873 45.9786 33.8873H34.6828C33.9925 33.8873 33.4328 34.4471 33.4328 35.1373V45.1833H29.6573V18.816H33.4328V28.862C33.4326 29.5523 33.9924 30.112 34.6826 30.112ZM20.8816 47.061C20.8816 47.791 17.801 49.5762 12.0908 49.5762C6.3805 49.5762 3.3 47.791 3.3 47.061V42.7943C7.69063 45.1263 16.4874 45.1283 20.8816 42.7943V47.061ZM20.8816 16.9385C20.8816 17.6685 17.801 19.4538 12.0908 19.4538C6.3805 19.4538 3.3 17.6685 3.3 16.9385V12.672C7.69063 15.004 16.4874 15.006 20.8816 12.672V16.9385ZM20.8816 20.2025V24.4691C20.8816 25.1991 17.801 26.9845 12.0908 26.9845C6.3805 26.9845 3.3 25.1991 3.3 24.4691V20.2026C7.691 22.5347 16.4874 22.5365 20.8816 20.2025ZM20.8816 27.7331V31.9997C20.8816 32.7297 17.801 34.515 12.0908 34.515C6.3805 34.515 3.3 32.7297 3.3 31.9997V27.7332C7.691 30.0653 16.4874 30.0671 20.8816 27.7331ZM20.8816 35.2637V39.5303C20.8816 40.2603 17.801 42.0456 12.0908 42.0456C6.3805 42.0456 3.3 40.2603 3.3 39.5303V35.2637C7.69063 37.5957 16.4874 37.5977 20.8816 35.2637ZM12.0908 6.89258C17.8011 6.89258 20.8816 8.67795 20.8816 9.40795C20.8816 10.138 17.801 11.9232 12.0908 11.9232C6.3805 11.9232 3.3 10.1378 3.3 9.40795C3.3 8.67795 6.3805 6.89258 12.0908 6.89258ZM12.0908 57.1068C6.3805 57.1068 3.3 55.3215 3.3 54.5915V50.325C7.69063 52.657 16.4874 52.6588 20.8816 50.325V54.5915C20.8816 55.3215 17.8011 57.1068 12.0908 57.1068ZM35.9326 36.3875H45.4608L48.8599 39.7867C49.0944 40.0211 49.4123 40.1528 49.7438 40.1528H62.3V56.4793H35.9326V36.3875ZM35.9326 7.52008H45.4608L48.8599 10.9193C49.0944 11.1537 49.4123 11.2855 49.7438 11.2855H62.3V27.612H35.9326V7.52008Z" fill="#59A745"/>
<path d="M40.9583 23.8369H57.2745C57.9648 23.8369 58.5245 23.2772 58.5245 22.5869C58.5245 21.8967 57.9648 21.3369 57.2745 21.3369H40.9583C40.268 21.3369 39.7083 21.8967 39.7083 22.5869C39.7083 23.2773 40.2679 23.8369 40.9583 23.8369Z" fill="#59A745"/>
<path d="M40.9583 17.5605H57.2745C57.9648 17.5605 58.5245 17.0008 58.5245 16.3105C58.5245 15.6203 57.9648 15.0605 57.2745 15.0605H40.9583C40.268 15.0605 39.7083 15.6203 39.7083 16.3105C39.7083 17.0009 40.2679 17.5605 40.9583 17.5605Z" fill="#59A745"/>
<path d="M40.9583 52.7041H57.2745C57.9648 52.7041 58.5245 52.1444 58.5245 51.4541C58.5245 50.7639 57.9648 50.2041 57.2745 50.2041H40.9583C40.268 50.2041 39.7083 50.7639 39.7083 51.4541C39.7083 52.1444 40.2679 52.7041 40.9583 52.7041Z" fill="#59A745"/>
<path d="M40.9583 46.4287H57.2745C57.9648 46.4287 58.5245 45.869 58.5245 45.1787C58.5245 44.4885 57.9648 43.9287 57.2745 43.9287H40.9583C40.268 43.9287 39.7083 44.4885 39.7083 45.1787C39.7083 45.869 40.2679 46.4287 40.9583 46.4287Z" fill="#59A745"/>
</g>
<defs>
<clipPath id="clip0_176_3502">
<rect width="64" height="64" fill="white" transform="translate(0.800003)"/>
</clipPath>
</defs>
</svg>
