<svg width="40" height="40" viewBox="0 0 40 40" fill="none" xmlns="http://www.w3.org/2000/svg">
<g clip-path="url(#clip0_2805_13064)">
<path d="M3.93289 29.4581C6.06063 30.1602 8.85344 30.5469 11.7969 30.5469C14.7403 30.5469 17.5331 30.1602 19.6609 29.4581C22.9115 28.3856 23.5938 26.9091 23.5938 25.8594V4.6875C23.5938 3.63773 22.9115 2.16125 19.6609 1.08875C17.5331 0.386641 14.7403 0 11.7969 0C8.85344 0 6.06063 0.386641 3.93289 1.08875C0.682265 2.16125 0 3.63773 0 4.6875V25.8594C0 26.9091 0.682265 28.3856 3.93289 29.4581ZM18.9266 27.2324C17.057 27.8493 14.4582 28.2031 11.7969 28.2031C9.13555 28.2031 6.5368 27.8493 4.66719 27.2324C2.74766 26.5991 2.34375 25.9591 2.34375 25.8594V21.7764C2.7893 22.0041 3.3143 22.2228 3.93289 22.4269C6.06063 23.129 8.85344 23.5156 11.7969 23.5156C14.7403 23.5156 17.5331 23.129 19.6609 22.4269C20.2794 22.2228 20.8045 22.004 21.25 21.7764V25.8594C21.25 25.9591 20.8461 26.5991 18.9266 27.2324ZM4.66719 3.31445C6.5368 2.69758 9.13555 2.34375 11.7969 2.34375C14.4582 2.34375 17.057 2.69758 18.9266 3.31445C20.8461 3.94781 21.25 4.58773 21.25 4.6875C21.25 4.78727 20.8461 5.42719 18.9266 6.06055C17.057 6.67742 14.4582 7.03125 11.7969 7.03125C9.13555 7.03125 6.5368 6.67742 4.66719 6.06055C2.74766 5.42719 2.34375 4.78727 2.34375 4.6875C2.34375 4.58773 2.74766 3.94781 4.66719 3.31445ZM2.34375 7.63578C2.7893 7.86344 3.3143 8.08219 3.93289 8.28625C6.06063 8.98836 8.85344 9.375 11.7969 9.375C14.7403 9.375 17.5331 8.98836 19.6609 8.28625C20.2794 8.08219 20.8045 7.86336 21.25 7.63578V11.7969C21.25 11.8966 20.8461 12.5366 18.9266 13.1699C17.057 13.7868 14.4582 14.1406 11.7969 14.1406C9.13555 14.1406 6.5368 13.7868 4.66719 13.1699C2.74766 12.5366 2.34375 11.8966 2.34375 11.7969V7.63578ZM2.34375 14.7452C2.7893 14.9728 3.3143 15.1916 3.93289 15.3956C6.06063 16.0977 8.85344 16.4844 11.7969 16.4844C14.7403 16.4844 17.5331 16.0977 19.6609 15.3956C20.2794 15.1916 20.8045 14.9727 21.25 14.7452V18.8281C21.25 18.9279 20.8461 19.5678 18.9266 20.2012C17.057 20.818 14.4582 21.1719 11.7969 21.1719C9.13555 21.1719 6.5368 20.818 4.66719 20.2012C2.74766 19.5678 2.34375 18.9279 2.34375 18.8281V14.7452Z" fill="#1D1D1F"/>
<path d="M39.9857 28.2031H35.3125V18.8281H28.2812V28.2031H23.608L31.7886 37.6562H23.5938V40H40V37.6562H31.8052L39.9857 28.2031ZM30.625 30.5469V21.1719H32.9688V30.5469H34.858L31.7969 34.0841L28.7357 30.5469H30.625Z" fill="#59A745"/>
</g>
<defs>
<clipPath id="clip0_2805_13064">
<rect width="40" height="40" fill="white"/>
</clipPath>
</defs>
</svg>
