<svg width="27" height="26" viewBox="0 0 27 26" fill="none" xmlns="http://www.w3.org/2000/svg">
<g clip-path="url(#clip0_3190_10874)">
<path d="M26.8333 1.06104H0.833328V2.55338H2.40755V5.53808H3.93098V18.9692H13.0716V20.5899C12.185 20.8979 11.5482 21.7273 11.5482 22.7001C11.5482 23.9344 12.5733 24.9386 13.8333 24.9386C15.0934 24.9386 16.1185 23.9344 16.1185 22.7001C16.1185 21.7273 15.4816 20.8979 14.595 20.5899V18.9692H23.7357V5.53808H25.2591V2.55338H26.8333V1.06104ZM13.8333 23.4462C13.4133 23.4462 13.0716 23.1115 13.0716 22.7001C13.0716 22.2886 13.4133 21.9539 13.8333 21.9539C14.2533 21.9539 14.595 22.2886 14.595 22.7001C14.595 23.1115 14.2533 23.4462 13.8333 23.4462ZM22.2122 17.4769H5.45442V5.53808H22.2122V17.4769ZM23.7357 4.04573H3.93098V2.55338H23.7357V4.04573Z" fill="#3D3A3A"/>
<path d="M6.97786 15.9844H20.6888V14.492H19.1654V7.03027H17.6419V14.492H16.1185V8.52262H14.595V14.492H13.0716V11.5073H11.5482V14.492H10.0247V12.9997H8.5013V14.492H6.97786V15.9844Z" fill="#59A745"/>
</g>
<defs>
<clipPath id="clip0_3190_10874">
<rect width="26" height="26" fill="white" transform="translate(0.833328)"/>
</clipPath>
</defs>
</svg>
