<svg width="27" height="26" viewBox="0 0 27 26" fill="none" xmlns="http://www.w3.org/2000/svg">
<g clip-path="url(#clip0_3190_10902)">
<path d="M4.55054 0V26H23.1161V0H4.55054ZM10.9072 1.52344H16.7595V3.04709H10.9072V1.52344ZM21.5927 24.4766H6.07398V1.52344H9.38376V4.57053H18.2829V1.52344H21.5927V24.4766Z" fill="#3D3A3A"/>
<path d="M9.57521 16.4383H11.0986V15.1437H12.6222V7.89423H11.0986V6.59961H9.57521V7.89423H8.05167V15.1437H9.57521V16.4383ZM9.57515 9.41766H11.0988V13.6202H9.57515V9.41766Z" fill="#59A745"/>
<path d="M17.7006 7.61523H16.1772V8.90985H14.6537V15.1436H16.1772V16.4382H17.7006V15.1436H19.2242V8.90985H17.7006V7.61523ZM17.7007 13.6201H16.1771V10.4333H17.7007V13.6201Z" fill="#59A745"/>
<path d="M8.81343 18.3823H18.4625V19.9058H8.81343V18.3823Z" fill="#3D3A3A"/>
<path d="M8.81343 21.4297H18.4625V22.9531H8.81343V21.4297Z" fill="#3D3A3A"/>
</g>
<defs>
<clipPath id="clip0_3190_10902">
<rect width="26" height="26" fill="white" transform="translate(0.833328)"/>
</clipPath>
</defs>
</svg>
