<svg width="41" height="40" viewBox="0 0 41 40" fill="none" xmlns="http://www.w3.org/2000/svg">
<g clip-path="url(#clip0_3222_9599)">
<path d="M36.8177 32.9688C35.29 32.9688 33.9875 33.9487 33.5035 35.3125H23.6476C23.2939 34.3152 22.5026 33.5239 21.5052 33.1702V30.5298C24.3074 30.4489 26.9188 30.079 28.9564 29.4678C30.8467 28.9008 33.224 27.8317 33.224 25.8594V4.6875C33.224 2.71515 30.8467 1.64612 28.9564 1.0791C26.6371 0.383301 23.5743 0 20.3334 0C17.0924 0 14.0297 0.383301 11.7103 1.0791C9.82007 1.64612 7.44275 2.71515 7.44275 4.6875V25.8594C7.44275 26.4618 7.68811 27.3544 8.85754 28.1836C9.55182 28.6761 10.5116 29.1083 11.7103 29.4678C13.7483 30.079 16.3594 30.4489 19.1615 30.5298V33.1702C18.1642 33.5239 17.3729 34.3152 17.0192 35.3125H7.16321C6.6792 33.9487 5.37671 32.9688 3.849 32.9688C1.91052 32.9688 0.333374 34.5459 0.333374 36.4844C0.333374 38.4229 1.91052 40 3.849 40C5.37671 40 6.6792 39.0201 7.16321 37.6562H17.0192C17.5032 39.0201 18.8057 40 20.3334 40C21.8611 40 23.1636 39.0201 23.6476 37.6562H33.5035C33.9875 39.0201 35.29 40 36.8177 40C38.7562 40 40.3334 38.4229 40.3334 36.4844C40.3334 34.5459 38.7562 32.9688 36.8177 32.9688ZM9.7865 14.5892C10.3346 14.8605 10.9776 15.1074 11.7103 15.3271C14.0297 16.0229 17.0924 16.4062 20.3334 16.4062C23.5743 16.4062 26.6371 16.0229 28.9564 15.3271C29.6891 15.1074 30.3322 14.8602 30.8802 14.5889V18.7375C30.8275 18.8983 30.2025 19.584 27.9771 20.2017C25.905 20.777 23.1904 21.0938 20.3334 21.0938C17.4763 21.0938 14.7618 20.777 12.6896 20.2017C10.4643 19.584 9.83929 18.8983 9.7865 18.7375V14.5892ZM9.7865 7.55798C10.3346 7.82928 10.9776 8.07617 11.7103 8.2959C14.0297 8.9917 17.0924 9.375 20.3334 9.375C23.5743 9.375 26.6371 8.9917 28.9564 8.2959C29.6891 8.07617 30.3322 7.82898 30.8802 7.55768V11.7062C30.8275 11.8671 30.2025 12.5528 27.9771 13.1705C25.905 13.7457 23.1904 14.0625 20.3334 14.0625C17.4763 14.0625 14.7618 13.7457 12.6896 13.1705C10.4643 12.5528 9.83929 11.8671 9.7865 11.7062V7.55798ZM12.6896 3.23578C14.7618 2.66052 17.4763 2.34375 20.3334 2.34375C23.1904 2.34375 25.905 2.66052 27.9771 3.23578C30.1472 3.8382 30.7957 4.50562 30.8757 4.6875C30.7957 4.86938 30.1469 5.5368 27.9771 6.13922C25.905 6.71448 23.1904 7.03125 20.3334 7.03125C17.4763 7.03125 14.7618 6.71448 12.6896 6.13922C10.5195 5.5368 9.87103 4.86938 9.79108 4.6875C9.87103 4.50562 10.5195 3.8382 12.6896 3.23578ZM9.7865 25.8469V21.6205C10.3346 21.8918 10.9776 22.1387 11.7103 22.3584C14.0297 23.0542 17.0924 23.4375 20.3334 23.4375C23.5743 23.4375 26.6371 23.0542 28.9564 22.3584C29.6891 22.1387 30.3322 21.8915 30.8802 21.6202V25.8469C30.8275 26.0077 30.2025 26.6934 27.9771 27.3111C25.905 27.8864 23.1904 28.2031 20.3334 28.2031C17.4763 28.2031 14.7618 27.8864 12.6896 27.3111C10.4643 26.6934 9.83929 26.0077 9.7865 25.8469ZM3.849 37.6562C3.20294 37.6562 2.67712 37.1304 2.67712 36.4844C2.67712 35.8383 3.20294 35.3125 3.849 35.3125C4.49506 35.3125 5.02087 35.8383 5.02087 36.4844C5.02087 37.1304 4.49506 37.6562 3.849 37.6562ZM20.3334 37.6562C19.6873 37.6562 19.1615 37.1304 19.1615 36.4844C19.1615 35.8383 19.6873 35.3125 20.3334 35.3125C20.9794 35.3125 21.5052 35.8383 21.5052 36.4844C21.5052 37.1304 20.9794 37.6562 20.3334 37.6562ZM36.8177 37.6562C36.1717 37.6562 35.6459 37.1304 35.6459 36.4844C35.6459 35.8383 36.1717 35.3125 36.8177 35.3125C37.4638 35.3125 37.9896 35.8383 37.9896 36.4844C37.9896 37.1304 37.4638 37.6562 36.8177 37.6562Z" fill="#59A745"/>
</g>
<defs>
<clipPath id="clip0_3222_9599">
<rect width="40" height="40" fill="white" transform="translate(0.333374)"/>
</clipPath>
</defs>
</svg>
