<svg width="40" height="40" viewBox="0 0 40 40" fill="none" xmlns="http://www.w3.org/2000/svg">
<g clip-path="url(#clip0_3222_12168)">
<path d="M5.00635 10.3857H7.35307V12.7325H5.00635V10.3857Z" fill="#59A745"/>
<path d="M9.6998 10.3857H12.0465V12.7325H9.6998V10.3857Z" fill="#59A745"/>
<path d="M12.907 28.7686H17.6004V31.1153H12.907V28.7686Z" fill="#59A745"/>
<path d="M40 27.3775L37.5797 24.8628L31.9155 23.8717V21.4938H36.6871V0.999023H6.8055V5.69247H0V37.2168H26.674L28.3904 39.0002L31.1475 35.0814L34.9423 38.8762L39.9204 33.898L36.1257 30.1033L40 27.3775ZM9.15223 3.34575H34.3404V19.147H31.9155V5.69247H9.15223V3.34575ZM2.34672 8.0392H29.5687V15.0794H2.34672V8.0392ZM2.34672 34.8701V17.4261H29.5687V23.4611L23.4237 22.3859L25.665 34.8701H2.34672ZM36.6016 33.8981L34.9423 35.5575L30.8339 31.4491L28.1261 35.2976L26.3269 25.2763L36.4026 27.0392L32.4932 29.7897L36.6016 33.8981Z" fill="#59A745"/>
<path d="M4.69345 21.8848L7.97887 26.5L4.69345 31.1152H7.35307L10.6385 26.5L7.35307 21.8848H4.69345Z" fill="#59A745"/>
</g>
<defs>
<clipPath id="clip0_3222_12168">
<rect width="40" height="40" fill="white"/>
</clipPath>
</defs>
</svg>
