<svg width="27" height="26" viewBox="0 0 27 26" fill="none" xmlns="http://www.w3.org/2000/svg">
<path d="M22.5391 3.04688C21.279 3.04688 20.2539 2.02175 20.2539 0.761719V0H6.74609V0.761719C6.74609 2.02175 5.72097 3.04688 4.46094 3.04688H3.69922V15.1621C3.69922 17.294 4.71337 19.336 6.412 20.6242L13.5 26L20.588 20.6243C22.2866 19.336 23.3008 17.2941 23.3008 15.1621V3.04688H22.5391ZM21.7773 15.1621C21.7773 16.8202 20.9886 18.4085 19.6674 19.4105L13.5 24.088L7.33262 19.4105C6.01139 18.4085 5.22266 16.8202 5.22266 15.1621V4.49378C6.71268 4.19011 7.88933 3.01346 8.193 1.52344H18.807C19.1107 3.01346 20.2873 4.19011 21.7773 4.49378V15.1621Z" fill="#3D3A3A"/>
<path d="M15.7852 3.80859H11.2148V6.85547H8.16797V17.5332H18.832V6.85547H15.7852V3.80859ZM11.2148 16.0098H9.69141V8.37891H11.2148V16.0098ZM14.2617 16.0098H12.7383V5.33203H14.2617V16.0098ZM17.3086 8.37891V16.0098H15.7852V8.37891H17.3086Z" fill="#59A745"/>
</svg>
