<svg width="26" height="26" viewBox="0 0 26 26" fill="none" xmlns="http://www.w3.org/2000/svg">
<path d="M0 1.57422V24.4258H26V1.57422H0ZM24.4766 4.62109H9.19141V3.09766H24.4766V4.62109ZM7.66797 3.09766V4.62109H1.52344V3.09766H7.66797ZM1.52344 22.9023V6.14453H24.4766V22.9023H1.52344Z" fill="#3D3A3A"/>
<path d="M3.09766 12.7528C3.09766 15.9627 5.14363 18.8013 8.18883 19.8164L8.42969 19.8967L8.67054 19.8164C11.7157 18.8013 13.7617 15.9627 13.7617 12.7528V9.19141H3.09766V12.7528ZM4.62109 10.7148H12.2383V12.7528C12.2383 15.2204 10.7182 17.4121 8.42969 18.2851C6.14113 17.4121 4.62109 15.2204 4.62109 12.7528V10.7148Z" fill="#59A745"/>
<path d="M7.98764 16.3339L8.42969 16.6489L8.87174 16.3339C9.94754 15.5673 10.6157 14.3709 10.7049 13.0514L10.7599 12.2383H6.09949L6.15448 13.0514C6.24366 14.3709 6.91183 15.5673 7.98764 16.3339ZM9.01037 13.7617C8.88042 14.1105 8.68364 14.4306 8.42969 14.7047C8.17573 14.4306 7.97895 14.1105 7.849 13.7617H9.01037Z" fill="#59A745"/>
<path d="M21.3789 9.19141H22.9023V10.7148H21.3789V9.19141Z" fill="#3D3A3A"/>
<path d="M15.2852 18.332H16.8086V19.8555H15.2852V18.332Z" fill="#3D3A3A"/>
<path d="M15.2852 9.19141H19.8555V10.7148H15.2852V9.19141Z" fill="#3D3A3A"/>
<path d="M15.2852 12.2383H22.9023V13.7617H15.2852V12.2383Z" fill="#3D3A3A"/>
<path d="M15.2852 15.2852H22.9023V16.8086H15.2852V15.2852Z" fill="#3D3A3A"/>
<path d="M18.332 18.332H22.9023V19.8555H18.332V18.332Z" fill="#3D3A3A"/>
</svg>
